<?xml version="1.0" ?><svg data-name="Layer 1" id="Layer_1" viewBox="0 0 64 64" xmlns="http://www.w3.org/2000/svg"><title/><desc/><path d="M28.87,13.7l.84-.85a9.2,9.2,0,0,1,12.51-.62,9,9,0,0,1,.44,13.13L13,55.06A3.49,3.49,0,0,0,13,60h0a3.49,3.49,0,0,0,4.95,0L47.29,30.63c6.09-6.09,6.65-16,.85-22.38A16,16,0,0,0,25,7.69L23.92,8.75a3.49,3.49,0,0,0,0,4.95h0A3.51,3.51,0,0,0,28.87,13.7Z" style="fill:#cff09e"/><polygon points="30.73 37.29 38.54 39.38 42.78 35.14 34.98 33.05 30.73 37.29" style="fill:#79bd9a"/><polygon points="13.76 54.26 21.57 56.35 25.81 52.11 18 50.02 13.76 54.26" style="fill:#79bd9a"/><path d="M25,7.69,23.92,8.75a3.5,3.5,0,0,0,4.95,4.95L29.6,13,25,7.66Z" style="fill:#79bd9a"/><polygon points="22.25 45.77 30.06 47.87 34.3 43.62 26.49 41.53 22.25 45.77" style="fill:#79bd9a"/><path d="M47.29,30.63a16.67,16.67,0,0,0,3.05-4.23l-7-1.86a9.18,9.18,0,0,1-.72.82L39.22,28.8,47,30.89Z" style="fill:#79bd9a"/><path d="M33.49,3.25l1.11,7a9,9,0,0,1,5.88.79l2.84-6.41A16,16,0,0,0,33.49,3.25Z" style="fill:#79bd9a"/><path d="M49.86,10.55l-5.63,4.22a9,9,0,0,1,1.05,4.45l6.85.85A15.83,15.83,0,0,0,49.86,10.55Z" style="fill:#79bd9a"/><path d="M48.24,31.09a17.2,17.2,0,0,0,.64-23.52A17,17,0,0,0,24.27,7L23.21,8a4.51,4.51,0,0,0,0,6.36l.17.16a4.5,4.5,0,0,0,6.2-.16l.84-.84a8.43,8.43,0,0,1,4.19-2.3l.18,0a8,8,0,0,1,5.23.7l.12.05a7.55,7.55,0,0,1,1.42,1,8.3,8.3,0,0,1,1.73,2.12.35.35,0,0,0,.06.14,8.1,8.1,0,0,1,.93,4,.61.61,0,0,0,0,.14,7.9,7.9,0,0,1-1.63,4.51l-.07.08c-.17.22-.35.43-.54.64a.94.94,0,0,0-.1.1l-7.68,7.68h0L33,33.62l-18,18-1.92,1.92h0l-.8.8a4.5,4.5,0,0,0,6.37,6.36L48,31.34l.23-.24ZM42.49,34l-5.58-1.49,2.61-2.61,5.58,1.49ZM34,42.51,28.42,41,31,38.4l5.58,1.5ZM25.51,51,19.94,49.5l2.61-2.61,5.57,1.49Zm-8.65,1.59,1.44-1.45,5.58,1.5-2.61,2.61-5.58-1.5Zm9.93-9.93,5.58,1.49-2.61,2.61-5.58-1.49Zm8.48-8.49,5.58,1.49-2.61,2.61-5.57-1.49,1.83-1.83Zm11.46-4.38-5.58-1.49,2.21-2.22a1.85,1.85,0,0,0,.14-.14l.24-.26L48.85,27a15.81,15.81,0,0,1-2.12,2.73ZM45,23.93a10,10,0,0,0,1.21-3.59l4.88.61a15.88,15.88,0,0,1-1.24,4.28Zm6.18-5-4.9-.62a10,10,0,0,0-.77-3.26l4-3A14.66,14.66,0,0,1,51.17,19ZM36.4,9.06c-.32,0-.65,0-1,0l-.79-5A15.08,15.08,0,0,1,42,5.15L40,9.72A9.91,9.91,0,0,0,36.4,9.06Zm-6.72,2.47-3.29-3.8a14.79,14.79,0,0,1,6.27-3.3l.8,5.06A10.49,10.49,0,0,0,29.68,11.53ZM24.63,9.45,25,9.13l3.29,3.79-.08.07a2.5,2.5,0,0,1-3.53-3.54Zm17.13,1.18L43.81,6A15.09,15.09,0,0,1,47.4,8.92a14.39,14.39,0,0,1,1.12,1.38l-4,3a10.16,10.16,0,0,0-1.64-1.84A9.91,9.91,0,0,0,41.76,10.63ZM17.2,59.31a2.51,2.51,0,0,1-4.27-1.77,2.46,2.46,0,0,1,.74-1.77l.39-.4,5.58,1.5Z" style="fill:#3b8686"/></svg>