<?xml version="1.0" ?><svg data-name="Layer 1" id="Layer_1" viewBox="0 0 64 64" xmlns="http://www.w3.org/2000/svg"><title/><desc/><path d="M39.06,49a24,24,0,0,1-24-24V3h-6V55h40V49Z" style="fill:#cff09e"/><polygon points="49.06 7.12 49.06 55.02 9.06 55.02 55.06 61.02 55.06 8.02 49.06 7.12" style="fill:#79bd9a"/><polygon points="39.06 32.02 34.06 24.02 37.06 24.02 31.06 16.02 34.06 16.02 29.06 8.02 24.06 16.02 27.06 16.02 21.06 24.02 24.06 24.02 19.06 32.02 39.06 32.02" style="fill:#79bd9a"/><rect height="5" style="fill:#a8dba8" width="4" x="27.06" y="32.02"/><circle cx="41.06" cy="15.02" r="3" style="fill:#cff09e"/><rect height="8" style="fill:#cff09e" width="10" x="27.06" y="37.02"/><rect height="6" style="fill:#79bd9a" width="6" x="21.06" y="39.02"/><rect height="4" style="fill:#79bd9a" width="4" x="37.06" y="41.02"/><rect height="4" style="fill:#a8dba8" width="6" x="15.06" y="41.02"/><path d="M55.21,7l-5.15-.77V3a1,1,0,0,0-1-1h-40a1,1,0,0,0-1,1V55h0v0h0v0h0v.05h0v0h0v0h0v0h0v0l0,0h0v.09l0,0v.06l0,0h0l.06.07h0l0,0,0,0,0,0h0l0,0h0l0,0h0l0,0h.06l0,0h.06l0,0h.24l46,6h.13a1,1,0,0,0,.66-.25,1,1,0,0,0,.34-.75V8A1,1,0,0,0,55.21,7ZM41.06,13a2,2,0,1,1-2,2A2,2,0,0,1,41.06,13Zm-25,4a2,2,0,1,1-2,2A2,2,0,0,1,16.06,17Zm-6-13h5V15.14a4,4,0,1,0,2,0V4h23v7.12a4,4,0,1,0,2,0V4h6V54h-38Zm44,55.86L24.46,56h24.6a1,1,0,0,0,1-1V8.28l4,.6Z" style="fill:#3b8686"/><path d="M41.06,40h-3V37a1,1,0,0,0-1-1h-5V33h7a1,1,0,0,0,.85-1.53l-4-6.47h1.19a1,1,0,0,0,.9-.55,1,1,0,0,0-.1-1L33.06,17h1a1,1,0,0,0,.85-1.53l-5-8a1,1,0,0,0-1.7,0l-5,8A1,1,0,0,0,24.06,17h1l-4.8,6.4a1,1,0,0,0,.8,1.6h1.2l-4.05,6.47A1,1,0,0,0,19.06,33h7v5h-5a1,1,0,0,0-1,1v1h-5a1,1,0,0,0-1,1v4a1,1,0,0,0,1,1h26a1,1,0,0,0,1-1V41A1,1,0,0,0,41.06,40Zm-5,0h-3V38h3Zm0,2v2h-3V42Zm-8-4h3v2h-3Zm6-15a1,1,0,0,0-.85,1.53l1.29,2.06a12.85,12.85,0,0,1-9.94-1.5l.35-.56A1,1,0,0,0,24.06,23h-1l.88-1.17a11.69,11.69,0,0,0,2.56.29,11.56,11.56,0,0,0,6.43-2L35.06,23Zm-5-13.11L32.26,15h-1.2a1,1,0,0,0-.8,1.6l1.47,2a9.41,9.41,0,0,1-6.45,1.48l2.58-3.44a1,1,0,0,0-.8-1.6H25.87ZM23.5,26.81A14.8,14.8,0,0,0,31.31,29a15,15,0,0,0,4.3-.64L37.26,31H20.87ZM30.06,33v3h-2V33Zm-14,9h4v2h-4Zm6-2h4v4h-4Zm6,2h3v2h-3Zm12,2h-2V42h2Z" style="fill:#3b8686"/><path d="M40.06,49h-22a1,1,0,1,0,0,2h22a1,1,0,0,0,0-2Z" style="fill:#3b8686"/><path d="M45.6,22.31a1,1,0,0,0-1.42,0l-.7.71-.71-.71a1,1,0,0,0-1.42,1.42l.71.7-.71.71a1,1,0,0,0,0,1.41,1,1,0,0,0,.71.3,1,1,0,0,0,.71-.3l.71-.7.7.7a1,1,0,0,0,1.42-1.41l-.71-.71.71-.7A1,1,0,0,0,45.6,22.31Z" style="fill:#3b8686"/><circle cx="16.06" cy="37.02" r="1" style="fill:#3b8686"/><path d="M14.09,30a1,1,0,0,0,1,1h0a1,1,0,0,0,1-1V29h1a1,1,0,0,0,1-1,1,1,0,0,0-1-1H16V26a1,1,0,0,0-1-1,1,1,0,0,0-1,1v1l-1,0a1,1,0,0,0,0,2h0l1,0Z" style="fill:#3b8686"/><circle cx="44.06" cy="32.02" r="1" style="fill:#3b8686"/><circle cx="41.06" cy="37.02" r="1" style="fill:#3b8686"/><circle cx="35.06" cy="8.02" r="1" style="fill:#3b8686"/><circle cx="21.06" cy="8.02" r="1" style="fill:#3b8686"/></svg>